<?xml version="1.0" standalone="no"?>
<!DOCTYPE svg PUBLIC "-//W3C//DTD SVG 20010904//EN"
 "http://www.w3.org/TR/2001/REC-SVG-20010904/DTD/svg10.dtd">
<svg version="1.0" xmlns="http://www.w3.org/2000/svg"
 width="768.000000pt" height="768.000000pt" viewBox="0 0 768.000000 768.000000"
 preserveAspectRatio="xMidYMid meet">

<g transform="translate(0.000000,768.000000) scale(0.100000,-0.100000)"
fill="#000000" stroke="none">
<path d="M4236 7559 c6 -77 5 -91 -7 -84 -12 8 -12 6 0 -8 9 -11 10 -17 2 -17
-6 0 -11 -7 -11 -16 0 -8 4 -13 9 -10 5 3 12 -1 15 -10 10 -25 7 -109 -4 -122
-6 -6 -7 -10 -4 -8 12 8 44 -29 44 -51 0 -12 4 -33 10 -47 6 -16 6 -26 0 -26
-5 0 -7 -6 -4 -14 3 -8 1 -17 -5 -21 -7 -4 -11 9 -11 39 0 25 -3 47 -7 49 -5
3 -8 -21 -8 -54 0 -55 4 -63 30 -60 11 1 13 -108 2 -126 -4 -6 -2 -13 4 -15 8
-3 8 -14 1 -41 -7 -23 -7 -35 -1 -31 6 3 7 -5 3 -22 -8 -30 -8 -31 2 -83 4
-21 9 -29 14 -20 5 7 5 22 0 33 -10 27 -6 203 5 213 4 5 5 0 2 -9 -3 -10 -2
-20 3 -23 10 -6 8 -40 -2 -50 -3 -4 -3 -19 2 -35 5 -18 4 -32 -3 -40 -9 -10
-9 -11 0 -6 9 5 12 -12 11 -69 -1 -42 -5 -70 -10 -63 -5 9 -8 4 -8 -13 0 -22
6 -28 33 -33 25 -5 29 -9 17 -16 -12 -8 -12 -10 -1 -10 11 0 11 -3 0 -16 -12
-15 -11 -16 10 -9 22 7 23 7 4 -12 -10 -11 -25 -17 -33 -14 -12 4 -13 2 -2
-11 10 -13 10 -17 -4 -22 -21 -8 -24 -5 -35 36 l-9 33 4 -37 c3 -20 2 -39 -2
-41 -4 -2 -1 -2 6 -1 6 2 12 -2 12 -8 0 -7 5 -6 15 2 13 11 15 8 15 -16 0 -22
3 -25 10 -14 10 16 3 -121 -7 -150 -3 -8 -7 -23 -8 -32 -4 -37 -17 -31 -15 7
3 54 1 65 -7 65 -5 0 -7 -28 -6 -62 1 -35 -1 -52 -5 -38 -5 21 -7 18 -13 -20
-5 -40 -7 -42 -14 -21 -8 23 -9 24 -16 5 -7 -17 -8 -17 -8 -1 -1 10 -5 16 -10
12 -6 -3 -13 1 -18 8 -4 8 -29 22 -55 32 -27 10 -48 21 -48 25 0 4 -6 7 -12 8
-32 3 -50 10 -58 22 -5 8 -12 11 -16 7 -4 -3 -43 24 -88 61 -44 37 -72 55 -61
41 11 -14 47 -61 79 -103 53 -68 57 -78 42 -89 -9 -7 -18 -23 -21 -37 -4 -23
-2 -23 25 10 46 54 35 28 -24 -63 -65 -97 -120 -155 -131 -136 -6 8 -4 10 6 4
11 -6 12 -5 2 6 -16 16 -17 33 -2 23 6 -3 3 5 -6 20 -19 29 -27 34 -19 11 12
-30 -4 -13 -61 65 -32 45 -54 84 -50 88 4 4 10 1 12 -5 8 -21 33 -15 33 8 0
16 -4 19 -22 14 -42 -13 -41 -23 5 -88 25 -35 47 -71 49 -78 2 -8 10 -19 18
-26 8 -7 11 -13 6 -13 -5 0 -3 -7 4 -15 7 -8 9 -15 5 -15 -4 0 -2 -6 4 -14 9
-10 7 -16 -5 -27 -13 -11 -17 -10 -25 2 -6 10 -9 10 -9 2 0 -25 -23 -12 -95
52 -40 36 -75 65 -78 65 -4 0 -14 -14 -22 -30 -9 -18 -21 -28 -27 -24 -7 4 -8
3 -4 -4 10 -16 -56 -136 -316 -574 -135 -228 -165 -272 -204 -300 -25 -18
-123 -121 -217 -228 -527 -601 -832 -940 -844 -940 -7 0 -13 -4 -13 -8 0 -5
-30 -43 -66 -85 l-66 -77 31 -26 c31 -26 131 -147 131 -159 0 -3 -10 -3 -22 1
-22 7 -92 6 -166 -1 -27 -2 -37 3 -58 31 -14 18 -23 37 -20 42 3 5 -7 20 -22
33 l-27 24 25 -30 25 -30 -33 29 c-32 30 -42 43 -21 30 7 -4 10 -1 7 7 -3 8
-14 15 -26 15 -12 1 -29 7 -38 15 -14 11 -18 11 -21 1 -3 -6 -9 -10 -14 -6 -5
3 18 35 51 71 33 36 57 70 54 75 -6 9 -18 3 -20 -10 -2 -20 -17 -41 -25 -36
-6 3 -17 0 -26 -8 -15 -11 -16 -10 -11 10 4 13 2 22 -5 22 -6 0 0 11 13 25 25
26 42 26 20 0 -11 -13 -10 -14 3 -9 10 3 16 16 15 30 -2 24 -4 23 -41 -14 -21
-21 -40 -47 -41 -58 -2 -10 -6 -18 -10 -16 -4 2 -28 -15 -53 -38 -25 -22 -51
-40 -56 -40 -6 0 15 -23 46 -51 70 -62 183 -202 196 -243 8 -24 -15 -5 -109
92 -66 67 -137 137 -157 154 -21 17 0 -7 46 -54 47 -48 80 -91 77 -97 -5 -7
-1 -8 10 -4 12 4 15 3 10 -6 -10 -15 32 -63 47 -54 6 3 7 1 4 -4 -7 -11 26
-47 34 -38 4 3 9 -29 12 -72 0 -7 4 -10 8 -8 3 3 12 -2 19 -10 7 -8 10 -15 6
-15 -3 0 4 -18 15 -40 12 -22 26 -37 32 -33 6 3 7 1 3 -5 -4 -7 0 -26 8 -44 8
-18 22 -50 30 -71 11 -26 20 -36 28 -31 8 5 7 1 -2 -11 -9 -11 -10 -16 -2 -11
7 4 12 1 12 -8 0 -9 -4 -16 -10 -16 -5 0 -10 -10 -9 -22 0 -22 1 -22 9 -3 5
11 9 14 9 8 1 -7 7 -13 14 -13 8 0 12 -18 12 -59 0 -33 -2 -59 -5 -58 -3 1 -7
-2 -8 -8 -2 -5 -8 -16 -14 -22 -7 -9 -7 -13 1 -13 7 0 10 -4 7 -9 -4 -5 0 -11
6 -14 7 -2 10 -7 7 -11 -4 -4 -16 3 -28 15 -20 21 -27 16 -22 -15 1 -5 -5 -6
-13 -3 -8 3 -17 -1 -20 -9 -4 -9 3 -18 17 -24 21 -8 21 -9 -4 -9 -15 -1 -30
-8 -33 -17 -4 -10 -13 -13 -28 -9 -16 4 -19 4 -9 -3 18 -13 5 -32 -19 -27 -11
2 -23 -1 -26 -7 -5 -7 -2 -8 7 -3 8 5 10 4 6 0 -10 -12 -38 -15 -31 -4 6 10
-9 12 -19 2 -4 -3 3 -17 15 -30 20 -21 20 -23 4 -17 -15 6 -18 4 -13 -9 3 -9
1 -19 -5 -23 -7 -5 -8 -2 -3 6 6 10 2 11 -19 6 -18 -4 -25 -3 -21 4 3 5 1 10
-4 10 -15 0 -14 -23 2 -39 10 -10 9 -11 -5 -6 -10 4 -24 0 -33 -9 -9 -9 -24
-16 -33 -17 -10 0 -12 -3 -5 -5 7 -3 9 -12 6 -20 -4 -12 -8 -13 -13 -3 -5 6
-15 9 -25 6 -9 -4 -14 -10 -11 -15 2 -4 -4 -9 -15 -9 -11 -1 -17 2 -14 7 7 11
-22 7 -32 -5 -4 -4 -3 -5 3 -2 12 7 24 -12 30 -45 2 -10 -1 -18 -7 -18 -5 0
-7 5 -4 10 3 6 -1 10 -9 10 -8 0 -17 -4 -20 -9 -3 -5 -15 -11 -26 -14 -11 -3
-18 -1 -14 4 3 5 0 9 -6 9 -7 0 -10 -13 -7 -34 5 -34 -3 -40 -32 -22 -10 7
-12 5 -6 -3 5 -9 -2 -12 -26 -11 -53 3 -69 1 -69 -10 0 -5 -9 -19 -21 -31 -17
-17 -23 -18 -37 -7 -11 9 -14 10 -8 1 4 -8 2 -13 -4 -13 -6 0 -8 -5 -4 -11 5
-8 -1 -10 -20 -7 -15 3 -24 3 -21 0 3 -3 -5 -10 -18 -17 -12 -6 -21 -19 -21
-28 1 -9 -3 -18 -10 -19 -6 0 -18 -2 -26 -2 -8 -1 -14 -7 -13 -14 3 -13 -44
-28 -54 -18 -4 3 1 6 9 6 9 0 18 7 22 15 5 13 2 14 -17 4 -12 -7 -24 -12 -27
-11 -3 1 -6 -2 -6 -8 -1 -5 -2 -14 -3 -20 0 -5 -9 -10 -20 -10 -18 0 -45 -23
-36 -31 2 -3 -4 -5 -15 -5 -10 0 -16 4 -14 8 3 4 -2 8 -10 8 -9 0 -16 -7 -16
-15 0 -8 -8 -15 -17 -15 -16 0 -16 -2 -3 -11 12 -8 9 -10 -12 -6 -15 2 -33 0
-40 -4 -10 -7 -9 -9 4 -9 9 0 19 -4 22 -9 4 -5 -7 -7 -23 -5 -17 3 -32 0 -37
-7 -5 -8 -3 -10 7 -4 8 5 11 4 6 -1 -5 -5 -13 -10 -18 -10 -5 -1 -14 -2 -20
-3 -5 0 -8 -5 -5 -10 3 -5 -2 -8 -12 -7 -9 0 -16 -4 -15 -10 2 -11 -12 -15
-62 -15 -19 0 -24 -3 -15 -7 23 -11 21 -28 -3 -29 -17 -2 -19 0 -7 7 12 8 9
10 -10 10 -42 0 -66 -24 -40 -40 9 -5 9 -9 1 -14 -6 -4 -15 3 -20 16 -6 13
-10 18 -10 12 -2 -29 -61 -71 -61 -43 0 5 4 8 8 5 5 -3 9 1 9 8 0 11 -4 12
-17 3 -16 -9 -14 -17 23 -86 253 -473 636 -918 1073 -1249 188 -142 437 -292
656 -396 957 -455 2061 -495 3048 -109 258 101 561 263 790 422 351 243 718
610 961 961 542 781 776 1744 654 2687 -84 647 -345 1285 -739 1808 -206 275
-487 555 -761 761 -406 306 -882 532 -1377 654 -170 42 -436 90 -500 90 l-40
0 8 -91z m85 -488 c5 8 9 9 9 3 0 -5 -7 -19 -15 -30 -14 -18 -14 -18 -14 11 0
17 3 24 6 16 5 -11 7 -11 14 0z m158 -1336 c116 -128 162 -185 186 -225 15
-25 -93 69 -116 101 -11 16 -24 27 -29 24 -4 -3 -14 3 -21 13 -13 15 -12 16 4
3 29 -23 19 -7 -15 25 -18 16 -26 20 -18 10 13 -18 13 -19 -1 -14 -13 5 -16 0
-13 -23 4 -28 -9 -39 -21 -19 -4 6 -11 8 -16 4 -6 -3 -1 -21 12 -42 12 -21 62
-107 111 -192 57 -99 110 -177 146 -215 44 -46 46 -50 12 -19 -25 23 -60 50
-77 60 -22 12 -45 41 -68 86 -41 77 -140 249 -240 418 -157 263 -198 337 -212
375 -13 36 -2 28 118 -95 73 -74 189 -198 258 -275z m6 -95 c3 -6 -1 -7 -9 -4
-18 7 -21 14 -7 14 6 0 13 -4 16 -10z m486 -407 c13 -16 12 -17 -3 -4 -10 7
-18 15 -18 17 0 8 8 3 21 -13z m-1328 -23 c3 -11 1 -23 -4 -26 -5 -3 -9 6 -9
20 0 31 6 34 13 6z m-35 -21 c-10 -7 -10 -9 2 -10 8 -1 24 -3 35 -4 11 -1 26
-3 33 -4 14 -1 17 -71 2 -71 -5 0 -10 -5 -10 -11 0 -5 5 -7 10 -4 6 3 10 -3
10 -14 0 -12 -5 -21 -11 -21 -8 0 -8 -5 1 -15 7 -9 10 -27 6 -45 -5 -28 0 -35
26 -32 3 1 12 -6 20 -15 11 -15 10 -16 -9 -11 -16 4 -23 0 -27 -15 -3 -13 -2
-17 5 -10 14 14 101 -5 112 -23 4 -8 14 -14 22 -14 16 0 85 -60 85 -73 0 -5
-5 -5 -12 -1 -16 10 198 -304 433 -636 107 -151 266 -376 353 -500 166 -236
220 -301 268 -321 41 -17 30 -20 -33 -10 -30 5 -90 15 -134 22 -44 6 -87 16
-96 20 -8 4 -51 59 -94 121 -43 62 -106 151 -140 198 -34 47 -120 168 -192
270 -331 471 -388 550 -398 549 -5 0 -42 -45 -82 -98 -80 -109 -230 -298 -374
-472 -114 -137 -289 -357 -289 -363 0 -2 26 8 59 24 87 42 152 51 414 57 l237
6 0 122 c0 78 4 125 11 127 5 2 11 11 13 20 1 10 6 21 11 25 4 4 5 1 1 -7 -4
-8 -1 -6 8 4 8 10 13 22 11 27 -3 4 0 11 6 15 8 5 10 2 5 -7 -4 -8 2 -3 14 11
l21 25 -2 -30 c0 -16 -1 -99 0 -183 l1 -154 185 4 c102 1 185 3 185 2 0 0 -27
-24 -61 -52 l-61 -52 -124 0 -124 0 0 -192 0 -193 -48 54 -47 55 -5 140 -5
141 -355 0 -355 0 -32 -25 c-17 -14 -59 -60 -92 -102 -34 -42 -69 -81 -78 -86
-10 -5 -60 -12 -111 -16 -52 -4 -108 -10 -124 -13 -25 -5 -29 -3 -23 8 8 12 6
12 -8 0 -9 -7 -17 -19 -17 -25 0 -19 -46 -34 -98 -32 -28 0 -48 -2 -45 -6 2
-5 -7 -8 -20 -8 -28 0 -37 16 -37 66 0 21 -4 33 -10 29 -5 -3 -10 1 -10 10 0
10 5 13 12 9 8 -5 9 -2 4 11 -5 15 -4 16 9 5 12 -10 15 -10 15 4 0 9 7 19 15
22 8 4 12 10 9 15 -3 5 -2 9 3 8 21 -4 32 3 39 23 8 27 29 49 38 41 3 -4 6 -1
6 5 0 7 -6 12 -12 12 -7 0 -2 6 12 13 22 11 25 20 26 65 0 29 -3 55 -8 58 -5
3 -6 14 -3 25 4 11 3 19 -2 18 -20 -3 -34 2 -28 11 3 6 -1 10 -9 10 -9 0 -16
4 -16 10 0 12 -57 70 -63 64 -2 -3 -7 5 -10 16 -4 14 1 25 14 33 10 6 19 18
19 25 0 8 11 22 24 33 13 10 29 32 36 49 11 28 21 35 43 31 5 -1 6 2 4 6 -8
14 12 53 28 53 8 0 15 5 15 11 0 5 5 7 10 4 6 -3 10 -1 10 5 0 6 4 9 9 6 5 -4
7 3 4 14 -3 12 0 20 6 20 7 0 9 5 5 13 -5 7 -2 7 10 -2 15 -12 17 -12 14 0 -2
8 -7 17 -13 21 -6 5 -3 8 6 8 19 0 33 26 22 42 -3 6 -2 8 4 5 5 -3 19 1 31 9
17 12 20 19 12 33 -8 15 -6 17 14 14 13 -3 27 1 31 8 6 8 4 10 -6 4 -11 -7
-11 -5 1 9 8 10 24 22 36 26 16 7 21 15 17 29 -4 17 -1 21 21 21 20 0 26 5 26
21 0 11 5 17 10 14 6 -3 10 1 10 9 0 10 6 13 15 10 11 -5 13 -2 9 10 -5 13 0
16 25 16 17 0 34 0 37 -1 9 -1 24 23 24 40 0 10 -7 8 -23 -7 -18 -17 -24 -19
-24 -7 0 8 6 15 14 15 7 0 16 7 19 15 4 10 13 13 24 10 20 -7 82 59 74 80 -3
6 7 17 21 23 23 11 31 31 26 69 -2 17 19 56 26 49 3 -3 12 2 20 12 12 16 13
16 7 -3 -5 -16 -4 -17 4 -5 7 9 8 18 1 26 -7 9 -4 14 10 19 12 3 21 13 21 21
0 8 5 12 10 9 6 -4 13 8 17 25 3 17 14 37 24 43 11 7 19 22 19 35 0 13 6 22
13 21 27 -3 32 3 31 40 -2 29 2 38 11 35 15 -6 45 33 45 59 0 11 4 15 12 11 7
-4 8 -3 4 5 -4 6 0 14 8 17 9 3 14 9 13 13 -2 3 4 14 15 24 20 19 25 9 6 -12
-11 -11 -9 -11 9 -2 15 8 20 17 16 28 -5 12 -2 15 10 10 11 -4 18 1 22 14 4
10 12 19 18 19 7 0 6 4 -3 10 -12 8 -9 10 10 8 15 -2 24 2 23 9 -2 7 4 10 13
6 13 -5 13 -7 2 -14z m1492 -94 c30 -30 52 -55 49 -55 -2 0 -29 25 -59 55 -30
30 -52 55 -49 55 2 0 29 -25 59 -55z m120 -129 c114 -128 621 -675 720 -776
348 -356 334 -340 307 -340 -17 0 -44 -19 -88 -62 l-63 -63 52 61 52 61 -21
19 c-28 24 -152 173 -205 244 -23 30 -142 166 -265 301 -496 545 -563 619
-552 618 4 0 33 -29 63 -63z m-2065 -332 c-11 -8 -19 -20 -17 -25 1 -6 -2 -7
-8 -4 -13 8 16 45 34 45 6 0 2 -8 -9 -16z m-35 -80 c0 -8 -19 -13 -24 -6 -3 5
1 9 9 9 8 0 15 -2 15 -3z m2845 -584 c26 -33 58 -66 71 -75 13 -8 24 -19 24
-24 0 -4 -44 -13 -97 -20 -104 -12 -148 -31 -75 -31 l42 0 -26 -39 c-14 -22
-33 -42 -41 -45 -8 -4 -13 -12 -10 -20 6 -16 -51 -26 -150 -26 l-64 0 53 62
c91 106 107 121 126 113 9 -3 -8 20 -38 52 -31 32 -66 70 -80 86 l-23 27 120
0 120 0 48 -60z m-4305 -33 c0 -2 -12 -14 -27 -28 l-28 -24 24 28 c23 25 31
32 31 24z m3831 -207 l-50 -55 -53 50 c-29 28 -55 51 -57 53 -3 1 20 27 49 57
l55 55 53 -53 53 -53 -50 -54z m-3139 24 c-9 -13 -21 -24 -26 -24 -5 0 -1 10
10 23 l19 22 -22 -19 c-13 -10 -21 -22 -18 -26 2 -4 -7 -17 -20 -30 -28 -26
-35 -23 -85 40 l-28 36 44 49 45 48 49 -48 c48 -47 48 -48 32 -71z m1478 -44
c0 -33 -21 -44 -71 -35 -43 8 -44 9 -24 39 16 23 54 37 83 28 6 -2 12 -17 12
-32z m2250 -14 c0 -2 -8 -10 -17 -17 -16 -13 -17 -12 -4 4 13 16 21 21 21 13z
m-106 -168 c-34 -40 -321 -344 -594 -627 -372 -386 -934 -938 -1065 -1044 -44
-36 -98 -82 -119 -103 -43 -42 -41 -35 10 36 18 25 66 101 106 170 41 69 112
183 157 253 46 70 122 192 170 270 74 121 103 157 194 246 59 58 107 100 107
94 0 -12 -56 -87 -135 -178 -28 -33 -78 -105 -110 -160 -62 -106 -212 -330
-354 -529 -48 -67 -91 -128 -96 -136 -4 -8 160 154 366 361 206 207 496 492
646 633 149 142 343 335 430 429 209 225 289 307 298 307 5 0 0 -10 -11 -22z
m-4002 -260 c-1 -4 6 -9 16 -12 10 -3 49 -39 87 -78 39 -40 49 -54 24 -30 -25
23 -48 40 -52 37 -4 -3 -5 -2 -2 2 3 3 -2 15 -11 25 -14 15 -20 16 -33 5 -14
-11 -15 -10 -1 7 14 18 13 19 -1 14 -10 -4 -25 1 -37 12 -11 10 -23 16 -26 13
-3 -4 -6 1 -6 10 0 8 -9 19 -20 22 -11 3 -20 10 -20 15 0 4 -16 25 -35 44 -19
20 -35 44 -35 53 0 10 29 -11 77 -58 43 -41 76 -77 75 -81z m131 -32 c4 4 5
-3 2 -14 -2 -12 5 -31 17 -44 l20 -23 -16 27 c-10 17 -12 29 -6 33 6 3 10 1
10 -5 0 -6 9 -21 20 -32 16 -18 23 -19 33 -9 9 10 9 11 -4 6 -10 -4 -19 0 -23
11 -9 24 0 29 20 10 9 -10 23 -15 30 -12 21 8 44 -4 44 -22 0 -13 -2 -13 -13
3 -8 10 -19 15 -25 11 -17 -11 -15 -29 3 -22 8 3 15 1 15 -3 0 -5 -5 -11 -12
-13 -13 -5 -2 -28 13 -28 6 0 7 5 4 10 -3 6 1 10 9 10 12 0 14 -5 6 -24 -7
-19 -5 -28 11 -42 24 -22 25 -46 2 -37 -16 6 -17 5 -3 -13 14 -17 14 -18 -1
-6 -11 8 -15 21 -11 35 5 19 3 20 -10 9 -14 -11 -16 -9 -14 16 1 17 -3 29 -11
29 -6 0 -9 -5 -6 -11 3 -6 -24 19 -61 57 -36 37 -65 73 -63 80 1 6 -3 11 -9
10 -6 -1 -11 5 -11 13 0 12 3 12 17 -1 9 -8 19 -12 23 -9z m464 18 c-3 -3 -12
-4 -19 -1 -8 3 -5 6 6 6 11 1 17 -2 13 -5z m-114 -217 c6 3 7 1 3 -6 -4 -6
-12 -8 -18 -5 -7 5 -8 2 -4 -5 5 -7 14 -10 21 -8 14 6 15 -47 1 -60 -5 -5 -6
-2 -1 6 5 10 4 12 -4 7 -6 -4 -8 -12 -5 -18 4 -6 1 -14 -6 -18 -20 -12 -77 44
-63 62 6 7 9 21 8 31 -2 9 1 15 6 11 5 -3 6 -10 3 -16 -4 -6 -2 -8 4 -4 6 3 9
18 6 32 l-5 25 22 -20 c12 -11 27 -18 32 -14z m1315 -22 c25 -27 32 -43 32
-75 0 -111 -155 -148 -213 -51 -71 120 86 229 181 126z m1024 6 c38 -42 35
-77 -10 -107 l-32 -22 26 -31 c14 -17 21 -31 16 -31 -5 0 -22 16 -36 35 -20
26 -35 35 -57 35 -27 0 -29 -3 -29 -36 0 -24 -4 -34 -12 -32 -9 3 -14 37 -16
114 l-3 109 62 0 c57 -1 64 -3 91 -34z m-1814 12 c3 -10 -15 -13 -67 -13 l-71
0 0 -29 c0 -24 5 -29 31 -35 17 -3 44 -6 60 -6 16 0 29 -4 29 -10 0 -6 -27
-10 -61 -10 l-61 0 4 -50 c2 -35 -1 -50 -9 -50 -9 0 -13 22 -13 79 0 43 -3 93
-6 110 l-7 32 83 -3 c56 -2 85 -7 88 -15z m1144 -70 c3 -82 4 -88 29 -102 22
-12 31 -12 58 -2 38 16 55 68 45 141 -6 43 -4 50 11 50 15 0 17 -10 14 -85 -5
-99 -20 -123 -87 -132 -36 -5 -45 -2 -72 25 -28 29 -30 35 -30 111 0 64 3 81
15 81 11 0 15 -19 17 -87z m1196 -6 c-13 -20 -25 -36 -28 -37 -3 0 -13 14 -23
31 -17 30 -16 31 5 59 l23 28 23 -22 23 -23 -23 -36z m-2015 43 c9 -10 9 -11
0 -6 -19 11 -16 -5 6 -28 19 -21 19 -21 -13 -60 l-33 -38 -31 33 c-36 38 -37
42 -19 61 32 34 37 45 22 45 -7 0 -13 -5 -12 -10 1 -5 -6 -11 -16 -12 -17 -3
-17 -2 -3 14 18 20 81 21 99 1z m-797 -142 l29 -33 -32 29 c-31 28 -38 36 -30
36 2 0 16 -15 33 -32z m697 -401 c48 -78 154 -245 237 -372 157 -240 216 -341
186 -316 -10 8 -24 27 -32 43 -8 16 -19 26 -23 23 -5 -3 -55 48 -112 113 -56
64 -132 148 -168 187 -58 62 -60 64 -11 18 30 -29 58 -53 63 -53 4 0 8 -3 9
-7 4 -12 28 -41 98 -117 36 -39 76 -86 89 -104 13 -18 25 -31 28 -28 6 6 -35
67 -164 244 -62 85 -131 183 -154 218 -23 35 -45 61 -50 58 -5 -3 -6 3 -2 12
4 10 2 15 -4 11 -5 -3 -10 -1 -10 6 0 23 -55 107 -65 100 -7 -3 -8 -1 -4 6 10
15 -33 83 -46 75 -6 -4 -8 -2 -5 3 4 6 -1 19 -11 30 -9 10 -12 12 -7 3 9 -13
8 -13 -7 -1 -10 7 -16 17 -13 21 7 11 -30 41 -39 33 -4 -5 -6 -3 -4 2 4 14
-27 56 -36 47 -4 -4 -6 -2 -5 3 2 6 -9 29 -24 52 -15 24 -27 46 -27 50 0 4 51
-43 113 -105 97 -96 126 -134 200 -255z m-622 326 c13 -16 12 -17 -3 -4 -10 7
-18 15 -18 17 0 8 8 3 21 -13z m254 -163 c10 -11 16 -20 13 -20 -3 0 -13 9
-23 20 -10 11 -16 20 -13 20 3 0 13 -9 23 -20z m215 -216 c0 5 7 3 15 -4 8 -7
13 -16 10 -20 -7 -11 20 -31 29 -22 4 4 6 0 4 -8 -1 -8 3 -14 10 -12 6 1 11
-4 10 -10 -2 -7 2 -12 9 -11 6 1 17 -4 23 -12 7 -8 9 -15 5 -15 -5 0 0 -9 10
-20 10 -11 16 -20 14 -20 -2 0 -52 48 -109 107 -58 59 -88 92 -67 73 20 -18
37 -30 37 -26z m934 -283 c34 -11 74 -23 90 -26 54 -11 11 -27 -73 -26 -52 0
-81 -3 -81 -10 0 -6 7 -9 15 -6 11 5 12 1 5 -18 -8 -22 -7 -23 21 -20 17 3 27
0 24 -5 -4 -6 -2 -10 3 -10 6 0 12 7 16 15 3 9 0 15 -10 15 -9 0 -12 5 -8 12
5 8 12 5 23 -9 16 -19 17 -19 36 4 43 49 33 20 -12 -38 -82 -105 -107 -131
-123 -124 -16 6 -144 185 -132 185 4 0 20 -18 35 -40 29 -41 49 -45 42 -10 -5
25 12 27 18 3 4 -14 5 -13 6 4 0 12 6 25 11 28 26 16 3 25 -65 25 -79 0 -101
15 -37 25 49 8 92 25 92 36 0 14 39 10 104 -10z m-439 -321 c10 -11 16 -20 13
-20 -3 0 -13 9 -23 20 -10 11 -16 20 -13 20 3 0 13 -9 23 -20z m448 -109 c29
-35 45 -65 41 -72 -4 -8 -3 -9 4 -5 8 4 16 -3 22 -20 6 -15 33 -58 60 -95 28
-38 50 -71 50 -74 0 -3 -60 -5 -134 -5 -107 0 -135 3 -139 14 -3 8 -31 48 -61
89 l-55 75 67 96 c63 90 68 94 82 77 8 -11 37 -46 63 -80z m-372 42 l34 -38
-40 35 c-22 19 -42 36 -44 38 -2 1 0 2 5 2 6 0 26 -17 45 -37z"/>
<path d="M4163 6023 c13 -21 36 -58 51 -81 15 -24 30 -42 33 -39 2 3 -18 39
-46 81 -53 78 -80 106 -38 39z"/>
<path d="M4259 5875 c17 -33 31 -51 31 -40 0 6 -10 21 -21 35 -13 17 -17 18
-10 5z"/>
<path d="M4400 5758 c41 -45 50 -53 50 -45 0 2 -21 23 -47 47 l-48 45 45 -47z"/>
<path d="M4359 5715 c17 -33 31 -51 31 -40 0 6 -10 21 -21 35 -13 17 -17 18
-10 5z"/>
<path d="M3561 5144 c0 -11 3 -14 6 -6 3 7 2 16 -1 19 -3 4 -6 -2 -5 -13z"/>
<path d="M3650 5020 c-12 -7 -10 -9 8 -7 12 0 22 5 22 9 0 11 -12 10 -30 -2z"/>
<path d="M3567 4993 c3 -7 6 -13 8 -13 2 0 5 6 8 13 3 8 -1 14 -8 14 -7 0 -11
-6 -8 -14z"/>
<path d="M3627 4959 c3 -10 9 -16 14 -13 13 8 11 21 -5 27 -10 4 -12 0 -9 -14z"/>
<path d="M3719 4593 c-13 -16 -12 -17 4 -4 16 13 21 21 13 21 -2 0 -10 -8 -17
-17z"/>
<path d="M3679 4543 c-13 -16 -12 -17 4 -4 16 13 21 21 13 21 -2 0 -10 -8 -17
-17z"/>
<path d="M2755 4121 c-3 -5 -2 -12 3 -15 5 -3 9 1 9 9 0 17 -3 19 -12 6z"/>
<path d="M5760 3986 c0 -2 8 -10 18 -17 15 -13 16 -12 3 4 -13 16 -21 21 -21
13z"/>
<path d="M5855 3879 c-13 -5 5 -8 49 -8 38 -1 67 1 65 3 -10 8 -96 12 -114 5z"/>
<path d="M2254 3838 l-19 -23 23 19 c21 18 27 26 19 26 -2 0 -12 -10 -23 -22z"/>
<path d="M2395 2990 c-3 -5 -2 -10 4 -10 5 0 13 5 16 10 3 6 2 10 -4 10 -5 0
-13 -4 -16 -10z"/>
<path d="M3644 3016 c-18 -8 -36 -27 -44 -46 -18 -43 0 -78 52 -103 33 -16 40
-17 71 -3 20 8 40 23 46 34 40 76 -43 154 -125 118z"/>
<path d="M4670 2975 l0 -55 39 0 c50 0 94 33 85 64 -9 32 -33 46 -81 46 l-43
0 0 -55z"/>
<path d="M3870 1980 c-8 -5 -12 -12 -9 -15 4 -3 12 1 19 10 14 17 11 19 -10 5z"/>
<path d="M3905 1980 c-8 -13 4 -32 16 -25 12 8 12 35 0 35 -6 0 -13 -4 -16
-10z"/>
<path d="M3900 1905 c0 -9 5 -15 11 -13 6 2 11 8 11 13 0 5 -5 11 -11 13 -6 2
-11 -4 -11 -13z"/>
<path d="M4161 7614 c0 -11 3 -14 6 -6 3 7 2 16 -1 19 -3 4 -6 -2 -5 -13z"/>
<path d="M4221 7524 c0 -11 3 -14 6 -6 3 7 2 16 -1 19 -3 4 -6 -2 -5 -13z"/>
<path d="M4231 7324 c0 -11 3 -14 6 -6 3 7 2 16 -1 19 -3 4 -6 -2 -5 -13z"/>
<path d="M4293 6705 c0 -22 2 -30 4 -17 2 12 2 30 0 40 -3 9 -5 -1 -4 -23z"/>
<path d="M3774 6388 c-19 -23 -19 -23 2 -5 11 9 24 14 29 10 4 -5 5 -2 1 5 -9
16 -10 16 -32 -10z"/>
<path d="M3504 5993 c-21 -26 -39 -53 -40 -60 -1 -7 -13 -26 -26 -42 -24 -30
-58 -87 -57 -98 0 -3 -3 -9 -9 -12 -10 -7 -82 -110 -83 -120 0 -3 -2 -14 -4
-23 -2 -10 -2 -18 0 -18 4 0 103 158 175 280 35 58 69 113 78 123 8 9 13 17
10 17 -3 0 -23 -21 -44 -47z"/>
<path d="M2963 5415 c0 -8 4 -12 9 -9 5 3 6 10 3 15 -9 13 -12 11 -12 -6z"/>
<path d="M2973 5386 c-8 -15 -14 -16 -30 -8 -17 9 -30 0 -104 -74 -46 -46 -81
-84 -78 -84 4 0 -38 -44 -92 -97 -55 -53 -99 -101 -99 -106 0 -5 8 -4 18 4 9
7 -19 -24 -63 -69 -44 -45 -82 -82 -84 -82 -3 0 24 31 59 68 36 37 28 31 -18
-15 -46 -46 -81 -87 -78 -91 3 -5 -30 -42 -72 -83 l-77 -74 75 79 c41 43 70
76 64 73 -6 -4 -71 -71 -145 -149 -84 -91 -107 -119 -63 -78 39 36 7 2 -71
-75 -77 -77 -116 -117 -85 -90 53 48 53 47 -9 -15 -35 -36 -64 -67 -65 -70 -1
-3 -5 -4 -9 -2 -5 1 -6 -1 -3 -6 3 -5 -14 -26 -37 -48 l-42 -39 35 40 35 40
-37 -34 c-21 -19 -36 -37 -33 -39 8 -8 -56 -82 -66 -76 -5 3 -8 0 -7 -8 2 -7
-3 -12 -10 -10 -8 1 -11 -2 -7 -8 4 -6 -5 -26 -20 -45 -14 -20 -23 -40 -20
-45 3 -5 -4 -20 -17 -32 -13 -13 -17 -17 -8 -10 27 20 35 14 14 -10 -19 -23
-19 -23 1 -6 16 14 45 18 130 21 l110 3 -113 2 c-79 1 -111 5 -106 13 4 8 42
9 123 4 l116 -7 55 63 c30 35 101 114 157 176 55 62 150 170 209 240 60 71
162 189 229 264 156 176 247 281 260 298 5 7 35 41 65 75 31 33 62 70 70 81
14 19 14 19 -6 3 -25 -22 -41 -24 -24 -3 7 8 10 21 7 29 -4 10 -1 13 9 9 8 -3
14 1 15 11 3 29 4 34 12 42 4 4 7 1 7 -6 0 -7 3 -10 6 -7 4 4 1 13 -6 22 -10
12 -10 15 1 15 24 0 -13 20 -38 20 -12 0 -23 6 -25 12 -3 8 -8 6 -15 -6z m-33
-31 c0 -7 -8 -16 -17 -20 -15 -5 -16 -4 -5 6 6 7 12 18 12 23 0 6 -18 -7 -40
-29 -21 -21 -37 -42 -34 -47 3 -5 2 -8 -3 -7 -20 4 -27 -2 -13 -12 13 -9 13
-10 0 -6 -8 2 -26 -5 -40 -17 -14 -11 8 14 49 56 70 73 91 85 91 53z m60 -5
c0 -5 -4 -10 -10 -10 -5 0 -10 5 -10 10 0 6 5 10 10 10 6 0 10 -4 10 -10z
m-273 -187 c-14 -16 -46 -50 -71 -77 -26 -27 -46 -45 -46 -40 0 9 131 144 139
144 3 0 -7 -12 -22 -27z"/>
<path d="M1729 3993 c-13 -16 -12 -17 4 -4 9 7 17 15 17 17 0 8 -8 3 -21 -13z"/>
<path d="M1824 3908 l-19 -23 23 19 c21 18 27 26 19 26 -2 0 -12 -10 -23 -22z"/>
<path d="M1683 3853 c20 -2 35 -8 32 -14 -4 -5 -3 -9 2 -10 51 -5 76 -17 69
-35 -3 -8 -2 -12 4 -9 6 3 10 13 10 21 0 8 5 12 11 9 6 -4 8 -13 5 -21 -7 -18
5 -18 30 0 19 15 19 15 -1 35 -16 16 -37 21 -110 24 -49 3 -73 3 -52 0z"/>
<path d="M1780 3206 c0 -2 8 -10 18 -17 15 -13 16 -12 3 4 -13 16 -21 21 -21
13z"/>
<path d="M1823 3038 c-13 -22 -14 -50 -1 -46 6 2 13 16 15 31 4 29 -1 34 -14
15z"/>
<path d="M725 2290 c-16 -7 -17 -9 -3 -9 9 -1 20 4 23 9 7 11 7 11 -20 0z"/>
</g>
</svg>
